<?xml version="1.0" encoding="UTF-8" standalone="no"?>
<!-- Generator: Adobe Illustrator 26.0.1, SVG Export Plug-In . SVG Version: 6.00 Build 0)  -->

<svg
   xmlns:dc="http://purl.org/dc/elements/1.1/"
   xmlns:cc="http://creativecommons.org/ns#"
   xmlns:rdf="http://www.w3.org/1999/02/22-rdf-syntax-ns#"
   xmlns:svg="http://www.w3.org/2000/svg"
   xmlns="http://www.w3.org/2000/svg"
   xmlns:sodipodi="http://sodipodi.sourceforge.net/DTD/sodipodi-0.dtd"
   xmlns:inkscape="http://www.inkscape.org/namespaces/inkscape"
   version="1.1"
   id="Graphics"
   x="0px"
   y="0px"
   viewBox="0 0 442.89002 165.48"
   xml:space="preserve"
   sodipodi:docname="msd-logo.svg"
   width="442.89001"
   height="165.48"
   inkscape:version="0.92.3 (2405546, 2018-03-11)"><metadata
   id="metadata13"><rdf:RDF><cc:Work
       rdf:about=""><dc:format>image/svg+xml</dc:format><dc:type
         rdf:resource="http://purl.org/dc/dcmitype/StillImage" /><dc:title></dc:title></cc:Work></rdf:RDF></metadata><defs
   id="defs11" /><sodipodi:namedview
   pagecolor="#ffffff"
   bordercolor="#666666"
   borderopacity="1"
   objecttolerance="10"
   gridtolerance="10"
   guidetolerance="10"
   inkscape:pageopacity="0"
   inkscape:pageshadow="2"
   inkscape:window-width="1280"
   inkscape:window-height="737"
   id="namedview9"
   showgrid="false"
   fit-margin-top="0"
   fit-margin-left="0"
   fit-margin-right="0"
   fit-margin-bottom="0"
   inkscape:zoom="0.46682118"
   inkscape:cx="221.445"
   inkscape:cy="82.755005"
   inkscape:window-x="-8"
   inkscape:window-y="-8"
   inkscape:window-maximized="1"
   inkscape:current-layer="Graphics" />
<style
   type="text/css"
   id="style2">
	.st0{fill:#00827A;}
	.st1{fill:#2F3E4A;}
</style>
<path
   class="st0"
   d="M 41.37,41.37 C 41.37,18.52 59.89,0 82.74,0 c 22.85,0 41.37,18.52 41.37,41.37 z m 0,82.74 C 41.37,101.26 59.89,82.74 82.74,82.74 59.89,82.74 41.37,64.22 41.37,41.37 18.52,41.37 0,59.89 0,82.74 c 0,22.85 18.52,41.37 41.37,41.37 z m 0,0 c 0,22.85 18.52,41.37 41.37,41.37 22.85,0 41.37,-18.52 41.37,-41.37 z M 82.74,82.74 c 22.85,0 41.37,18.52 41.37,41.37 22.85,0 41.37,-18.52 41.37,-41.37 0,-22.85 -18.53,-41.37 -41.37,-41.37 0,22.85 -18.52,41.37 -41.37,41.37 z"
   id="path4"
   inkscape:connector-curvature="0"
   style="fill:#00827a" />
<path
   class="st1"
   d="m 269.76,41.37 h 25.64 v 82.73 h -19 V 68.46 L 252.1,124.1 226.52,68.39 V 124.1 H 208.79 V 41.37 h 25.34 l 18.27,42.82 z m 93.23,24.43 c 0,-16.34 -12.56,-25.84 -27.58,-25.84 -14.89,0 -31.13,8.72 -31.13,25.66 0,14.69 16.17,22.24 25.4,24.62 5.07,1.34 17.86,2.77 17.86,11.91 0,8.69 -8.94,11.06 -15.63,11.06 -8.62,0 -13.68,-6.04 -12.94,-15.16 h -16.95 c -0.59,20.58 13.4,28.25 29.74,28.62 18.89,0.43 33.31,-7.64 33.31,-25.83 0,-18.29 -16.36,-21.17 -29.15,-25.32 -4.96,-1.61 -14.13,-3.04 -14.13,-11.48 0,-7.07 6.1,-10.45 12.34,-10.45 8.03,0 12.19,3.97 12.79,12.22 h 16.07 m 35.75,-24.53 h -26.36 v 82.66 h 26.36 c 21.92,0 44.15,-12.66 44.15,-41.25 0,-28.61 -22.24,-41.41 -44.15,-41.41 z m -1.19,67.61 -7.3,0.02 v -0.02 -52.42 h 7.3 c 20.1,0 27.34,13.11 27.34,26.21 0,13.1 -7.25,26.21 -27.34,26.21 z"
   id="path6"
   inkscape:connector-curvature="0"
   style="fill:#2f3e4a" />
</svg>